<?xml version="1.0"?>
<svg xmlns="http://www.w3.org/2000/svg" viewBox="0 0 74 74" width="512" height="512"><g id="Layer_5" data-name="Layer 5"><path d="M19.064,65.79a.5.5,0,0,1-.277-.916L22,62.726a.5.5,0,0,1,.524-.019,28.988,28.988,0,0,0,3.3,1.6.5.5,0,1,1-.379.925A29.81,29.81,0,0,1,22.3,63.727l-2.961,1.979A.5.5,0,0,1,19.064,65.79Z" fill="#323c6b"/><path d="M28.923,66.4a.5.5,0,0,1-.133-.018c-.295-.082-.589-.167-.88-.258a.5.5,0,1,1,.3-.955c.281.087.563.17.849.249a.5.5,0,0,1-.133.982Z" fill="#323c6b"/><path d="M65.9,29.423a.5.5,0,0,1-.481-.367c-.185-.666-.4-1.332-.625-1.979a.5.5,0,1,1,.941-.335c.238.669.456,1.358.646,2.048a.5.5,0,0,1-.348.615A.51.51,0,0,1,65.9,29.423Z" fill="#323c6b"/><path d="M64.243,24.92a.5.5,0,0,1-.453-.29c-.33-.712-.694-1.419-1.083-2.1A.5.5,0,0,1,62.726,22l2.917-4.366a.5.5,0,0,1,.832.556L63.728,22.3c.346.623.671,1.263.969,1.906a.5.5,0,0,1-.243.664A.493.493,0,0,1,64.243,24.92Z" fill="#323c6b"/><path d="M63.43,42.51a26.358,26.358,0,0,1-3.85,9.28l4.29,6.42-5.66,5.66-6.42-4.29a26.358,26.358,0,0,1-9.28,3.85L41,71H33l-1.51-7.57a26.358,26.358,0,0,1-9.28-3.85l-6.42,4.29-5.66-5.66,4.29-6.42a26.358,26.358,0,0,1-3.85-9.28L3,41V33l7.57-1.51a26.358,26.358,0,0,1,3.85-9.28l-4.29-6.42,5.66-5.66,6.42,4.29a26.358,26.358,0,0,1,9.28-3.85L33,3h8l1.51,7.57a26.358,26.358,0,0,1,9.28,3.85l6.42-4.29,5.66,5.66-4.29,6.42a26.358,26.358,0,0,1,3.85,9.28L71,33v8Z" fill="#9a9eaf"/><path d="M41,71.5H33a.5.5,0,0,1-.49-.4l-1.445-7.247a26.78,26.78,0,0,1-8.852-3.672l-6.146,4.106a.5.5,0,0,1-.631-.062l-5.66-5.66a.5.5,0,0,1-.062-.631l4.106-6.146a26.776,26.776,0,0,1-3.671-8.851L2.9,41.49A.5.5,0,0,1,2.5,41V33a.5.5,0,0,1,.4-.49l7.247-1.445a26.776,26.776,0,0,1,3.671-8.851L9.714,16.068a.5.5,0,0,1,.063-.631l5.66-5.66a.5.5,0,0,1,.631-.062l6.146,4.106a26.78,26.78,0,0,1,8.852-3.672L32.51,2.9A.5.5,0,0,1,33,2.5h8a.5.5,0,0,1,.49.4l1.445,7.247a26.78,26.78,0,0,1,8.852,3.672l6.146-4.106a.5.5,0,0,1,.631.062l5.66,5.66a.5.5,0,0,1,.063.631L60.18,22.213a26.776,26.776,0,0,1,3.671,8.851L71.1,32.51a.5.5,0,0,1,.4.49v8a.5.5,0,0,1-.4.49l-7.247,1.445a26.776,26.776,0,0,1-3.671,8.851l4.106,6.146a.5.5,0,0,1-.062.631l-5.66,5.66a.5.5,0,0,1-.631.062l-6.146-4.106a26.78,26.78,0,0,1-8.852,3.672L41.49,71.1A.5.5,0,0,1,41,71.5Zm-7.59-1h7.18l1.43-7.167a.5.5,0,0,1,.39-.392,25.791,25.791,0,0,0,9.1-3.777.5.5,0,0,1,.554,0l6.079,4.062,5.08-5.08-4.062-6.079a.5.5,0,0,1,0-.554,25.773,25.773,0,0,0,3.776-9.1.5.5,0,0,1,.393-.39L70.5,40.59V33.41l-7.168-1.43a.5.5,0,0,1-.393-.39,25.773,25.773,0,0,0-3.776-9.1.5.5,0,0,1,0-.554l4.063-6.079-5.08-5.08-6.079,4.062a.5.5,0,0,1-.554,0,25.791,25.791,0,0,0-9.1-3.777.5.5,0,0,1-.39-.392L40.59,3.5H33.41l-1.43,7.167a.5.5,0,0,1-.39.392,25.791,25.791,0,0,0-9.1,3.777.5.5,0,0,1-.554,0l-6.079-4.062-5.08,5.08,4.063,6.079a.5.5,0,0,1,0,.554,25.773,25.773,0,0,0-3.776,9.1.5.5,0,0,1-.393.39L3.5,33.41v7.18l7.168,1.43a.5.5,0,0,1,.393.39,25.773,25.773,0,0,0,3.776,9.1.5.5,0,0,1,0,.554l-4.062,6.079,5.08,5.08,6.079-4.062a.5.5,0,0,1,.554,0,25.791,25.791,0,0,0,9.1,3.777.5.5,0,0,1,.39.392Z" fill="#323c6b"/><path d="M20.21,14.42q.507-.336,1.031-.648L15.79,10.13l-.8.8Z" fill="#62667c"/><path d="M50.759,13.772h0a26.349,26.349,0,0,0-8.249-3.2L41,3H39l1.51,7.57C43.88,11.26,47.979,11.932,50.759,13.772Z" fill="#828a9e"/><path d="M20.21,59.58l-5.221,3.489.8.8,5.451-3.642Q20.718,59.915,20.21,59.58Z" fill="#62667c"/><path d="M49.79,59.58a26.358,26.358,0,0,1-9.28,3.85L39,71h2l1.51-7.57a26.349,26.349,0,0,0,8.249-3.2Z" fill="#62667c"/><path d="M71,41V33l-7.57-1.51a26.358,26.358,0,0,0-3.85-9.28l4.29-6.42-5.66-5.66-1.2.8L61.87,15.79l-4.29,6.42a26.358,26.358,0,0,1,3.85,9.28L69,33v8l-7.57,1.51a26.358,26.358,0,0,1-3.85,9.28l4.29,6.42-4.859,4.859,1.2.8,5.66-5.66-4.29-6.42a26.358,26.358,0,0,0,3.85-9.28Z" fill="#828a9e"/><circle cx="37" cy="37" r="16" fill="#fcfcfc"/><path d="M37,53.5A16.5,16.5,0,1,1,53.5,37,16.519,16.519,0,0,1,37,53.5Zm0-32A15.5,15.5,0,1,0,52.5,37,15.517,15.517,0,0,0,37,21.5Z" fill="#323c6b"/><path d="M41,71.5H33a.5.5,0,0,1-.49-.4l-1.445-7.247a26.78,26.78,0,0,1-8.852-3.672l-6.146,4.106a.5.5,0,0,1-.631-.062l-5.66-5.66a.5.5,0,0,1-.062-.631l4.106-6.146a26.776,26.776,0,0,1-3.671-8.851L2.9,41.49A.5.5,0,0,1,2.5,41V33a.5.5,0,0,1,.4-.49l7.247-1.445a26.776,26.776,0,0,1,3.671-8.851L9.714,16.068a.5.5,0,0,1,.063-.631l5.66-5.66a.5.5,0,0,1,.631-.062l6.146,4.106a26.78,26.78,0,0,1,8.852-3.672L32.51,2.9A.5.5,0,0,1,33,2.5h8a.5.5,0,0,1,.49.4l1.445,7.247a26.78,26.78,0,0,1,8.852,3.672l6.146-4.106a.5.5,0,0,1,.631.062l5.66,5.66a.5.5,0,0,1,.063.631L60.18,22.213a26.776,26.776,0,0,1,3.671,8.851L71.1,32.51a.5.5,0,0,1,.4.49v8a.5.5,0,0,1-.4.49l-7.247,1.445a26.776,26.776,0,0,1-3.671,8.851l4.106,6.146a.5.5,0,0,1-.062.631l-5.66,5.66a.5.5,0,0,1-.631.062l-6.146-4.106a26.78,26.78,0,0,1-8.852,3.672L41.49,71.1A.5.5,0,0,1,41,71.5Zm-7.59-1h7.18l1.43-7.167a.5.5,0,0,1,.39-.392,25.791,25.791,0,0,0,9.1-3.777.5.5,0,0,1,.554,0l6.079,4.062,5.08-5.08-4.062-6.079a.5.5,0,0,1,0-.554,25.773,25.773,0,0,0,3.776-9.1.5.5,0,0,1,.393-.39L70.5,40.59V33.41l-7.168-1.43a.5.5,0,0,1-.393-.39,25.773,25.773,0,0,0-3.776-9.1.5.5,0,0,1,0-.554l4.063-6.079-5.08-5.08-6.079,4.062a.5.5,0,0,1-.554,0,25.791,25.791,0,0,0-9.1-3.777.5.5,0,0,1-.39-.392L40.59,3.5H33.41l-1.43,7.167a.5.5,0,0,1-.39.392,25.791,25.791,0,0,0-9.1,3.777.5.5,0,0,1-.554,0l-6.079-4.062-5.08,5.08,4.063,6.079a.5.5,0,0,1,0,.554,25.773,25.773,0,0,0-3.776,9.1.5.5,0,0,1-.393.39L3.5,33.41v7.18l7.168,1.43a.5.5,0,0,1,.393.39,25.773,25.773,0,0,0,3.776,9.1.5.5,0,0,1,0,.554l-4.062,6.079,5.08,5.08,6.079-4.062a.5.5,0,0,1,.554,0,25.791,25.791,0,0,0,9.1,3.777.5.5,0,0,1,.39.392Z" fill="#323c6b"/><path d="M28.9,17.616c-.005-.024-.012-.049-.019-.073a.961.961,0,0,0-1.2-.634,4.434,4.434,0,0,0-.907.335.96.96,0,1,0,.764,1.762,3.045,3.045,0,0,1,.71-.261A.961.961,0,0,0,28.9,17.616Z" fill="#eeefee"/><path d="M24.945,19.652a.962.962,0,0,0-1.43-.674c-5.861,3.4-6.516,9.729-6.611,9.971a.961.961,0,0,0,1.789.7,12.464,12.464,0,0,1,5.787-9.012A.961.961,0,0,0,24.945,19.652Z" fill="#eeefee"/></g></svg>
