<?xml version="1.0"?>
<svg xmlns="http://www.w3.org/2000/svg" viewBox="0 0 512 512" width="512" height="512"><g id="Fill_out_line" data-name="Fill out line"><path d="M64,24.0001V24H448v.0001A95.9999,95.9999,0,0,1,352.0001,120H159.9999A95.9999,95.9999,0,0,1,64,24.0001Z" style="fill:#8acce7"/><rect x="232" y="120" width="48" height="64" style="fill:#2d80b3"/><path d="M362.60377,217.825l-2.64687-4.81249A56,56,0,0,0,310.88881,184H201.11119a56,56,0,0,0-49.06809,29.01255l-2.64687,4.81249A560.62313,560.62313,0,0,0,80,487.99985V488H432v-.00014A560.62314,560.62314,0,0,0,362.60377,217.825Z" style="fill:#379ec3"/><path d="M368,336c0,2.68994-.09,5.35986-.29,8a111.50924,111.50924,0,0,1-18.96,54.79,112.357,112.357,0,0,1-29.96,29.96A111.50682,111.50682,0,0,1,264,447.71c-2.64.2-5.31.29-8,.29s-5.36-.09009-8-.29a111.50682,111.50682,0,0,1-54.79-18.96,112.357,112.357,0,0,1-29.96-29.96A111.50924,111.50924,0,0,1,144.29,344c-.2-2.64014-.29-5.31006-.29-8s.09-5.35986.29-8a111.50924,111.50924,0,0,1,18.96-54.79,112.357,112.357,0,0,1,29.96-29.96A111.50682,111.50682,0,0,1,248,224.29c2.64-.2002,5.31-.29,8-.29s5.36.08984,8,.29a111.50682,111.50682,0,0,1,54.79,18.96,112.357,112.357,0,0,1,29.96,29.96A111.50924,111.50924,0,0,1,367.71,328C367.91,330.64014,368,333.31006,368,336Z" style="fill:#8acce7"/><circle cx="256" cy="336" r="16" style="fill:#2f4054"/><path d="M366.9668,209.15723A63.99823,63.99823,0,0,0,310.88867,176H288V128h64A104.11791,104.11791,0,0,0,456,24a8.00008,8.00008,0,0,0-8-8H64a8.00008,8.00008,0,0,0-8,8A104.11791,104.11791,0,0,0,160,128h64v48H201.11133a63.99823,63.99823,0,0,0-56.07813,33.15723l-2.647,4.8125A570.15831,570.15831,0,0,0,72,488a8.00008,8.00008,0,0,0,8,8H432a8.00008,8.00008,0,0,0,8-8,570.15831,570.15831,0,0,0-70.38623-274.03027ZM72.36035,32h367.2793A88.11922,88.11922,0,0,1,352,112H160A88.11922,88.11922,0,0,1,72.36035,32ZM240,128h32v48H240ZM88.05859,480a554.21712,554.21712,0,0,1,68.34717-258.31934l2.647-4.8125A47.99926,47.99926,0,0,1,201.11133,192H310.88867a47.99926,47.99926,0,0,1,42.0586,24.86816l2.647,4.8125A554.21712,554.21712,0,0,1,423.94141,480Z"/><path d="M256,216A120,120,0,1,0,376,336,120.13623,120.13623,0,0,0,256,216Zm58.75415,205.76514L306.92822,408.21l-13.85644,8,7.84137,13.582A103.21058,103.21058,0,0,1,264,439.69531V424H248v15.69531a103.21058,103.21058,0,0,1-36.91315-9.90332l7.84137-13.582-13.85644-8-7.82593,13.55518a104.85016,104.85016,0,0,1-27.01129-27.01123l13.555-7.82618-8-13.85546-13.5813,7.8413A103.21051,103.21051,0,0,1,152.30475,344H168V328H152.30475a103.21051,103.21051,0,0,1,9.9035-36.91357l13.5813,7.8413,8-13.85546-13.555-7.82618a104.85016,104.85016,0,0,1,27.01129-27.01123L205.07178,263.79l13.85644-8-7.84137-13.582A103.21058,103.21058,0,0,1,248,232.30469V248h16V232.30469a103.21058,103.21058,0,0,1,36.91315,9.90332l-7.84137,13.582,13.85644,8,7.82593-13.55518a104.85016,104.85016,0,0,1,27.01129,27.01123l-13.555,7.82618,8,13.85546,13.5813-7.8413A103.21051,103.21051,0,0,1,359.69525,328H344v16h15.69525a103.21051,103.21051,0,0,1-9.9035,36.91357l-13.5813-7.8413-8,13.85546,13.555,7.82618A104.85016,104.85016,0,0,1,314.75415,421.76514Z"/><path d="M264,313.37622V272H248v41.37622a24,24,0,1,0,16,0ZM256,344a8,8,0,1,1,8-8A8.00917,8.00917,0,0,1,256,344Z"/></g></svg>
